<svg xmlns="http://www.w3.org/2000/svg" xmlns:xlink="http://www.w3.org/1999/xlink" xmlns:lucid="lucid" width="1284" height="917.33"><g transform="translate(1962.0000002104834 1115.333333126642)" lucid:page-tab-id="0_0"><path d="M-2000-1500h1500v2500h-1500z" fill="#fff"/><path d="M-1960-1028a12 12 0 0 1 12-12h1256a12 12 0 0 1 12 12v816a12 12 0 0 1-12 12h-1256a12 12 0 0 1-12-12z" stroke="#000" stroke-width="4" fill="#fff"/><path d="M-1960-1101.33a12 12 0 0 1 12-12h62.05a12 12 0 0 1 12 12v37.33a12 12 0 0 1-12 12H-1948a12 12 0 0 1-12-12z" stroke="#000" stroke-width="4"/><use xlink:href="#a" transform="matrix(1,0,0,1,-1948,-1097.7333333333333) translate(0 25.22222222222222)"/><path d="M-1860-600h120v120h-120z" fill-opacity="0"/><path d="M-1800-600c39.96 0 60 20.04 60 60s-20.04 60-60 60-60-20.04-60-60 20.04-60 60-60z" stroke="#000" stroke-opacity="0" fill="#a56eff"/><path d="M-1783.8-565.56h7.5v7.5h-7.5v-7.5zM-1783.8-554.28h7.5v7.5h-7.5v-7.5zM-1794.96-565.56h7.5v7.5h-7.5v-7.5zM-1794.96-554.28h7.5v7.5h-7.5v-7.5z" stroke="#000" stroke-opacity="0" fill="#fff"/><path d="M-1779.97-539.2v11.2h-45.1v-29.97h22.55v-3.75h-22.55c-2.05 0-3.73 1.66-3.73 3.75V-528c0 2.1 1.68 3.75 3.73 3.75h15.03v7.5h-7.5v3.75h30.05v-3.75h-7.5v-7.5h15.03c2.05 0 3.73-1.66 3.73-3.76v-11.2h-3.73zm-18.82 22.45h-7.45v-7.5h7.46v7.5z" stroke="#000" stroke-opacity="0" fill="#fff"/><path d="M-1832.52-569.28h60v60h-60v-60z" stroke="#000" stroke-opacity="0" fill-opacity="0"/><use xlink:href="#b" transform="matrix(1,0,0,1,-1890,-471) translate(25.275000000000006 14.4)"/><use xlink:href="#c" transform="matrix(1,0,0,1,-1890,-471) translate(66.875 14.4)"/><path d="M-1580-600h120v120h-120z" fill-opacity="0"/><path d="M-1580-600h120v120h-120v-120z" stroke="#000" stroke-opacity="0" fill="#1192e8"/><path d="M-1538.7-513.72h37.53c2.07 0 3.73-1.68 3.73-3.74v-11.24c0-2.05-1.66-3.74-3.73-3.74h-37.53c-2.08 0-3.74 1.7-3.74 3.74v11.24c0 2.06 1.66 3.74 3.74 3.74zm0-14.98h37.53v11.24h-37.53v-11.24z" stroke="#000" stroke-opacity="0" fill="#fff"/><path d="M-1530.6-523.1c0 1.38-1.12 2.5-2.5 2.5s-2.5-1.12-2.5-2.5 1.12-2.5 2.5-2.5 2.5 1.12 2.5 2.5zM-1501.2-566.2l-2.64 2.64 4.84 4.86h-9.12c-2.7-5.92-9.4-8.9-15.65-7.03-6.24 1.9-10.13 8.08-9.17 14.52h-7.94l4.84-4.86-2.64-2.64-9.4 9.37 9.4 9.37 2.64-2.64-4.84-4.86h9.12c2.7 5.92 9.4 8.9 15.65 7.03 6.23-1.9 10.12-8.08 9.16-14.52h7.94l-4.84 4.85 2.64 2.64 9.4-9.37-9.4-9.37zm-9.34 13.12c0 4.04-2.6 7.63-6.42 8.9-3.82 1.26-8.05-.06-10.4-3.28h7.42v-3.75h-9.17c-.9-4.28 1.28-8.64 5.28-10.43 4-1.8 8.72-.58 11.3 2.93h-7.42v3.75h9.17c.17.6.23 1.24.23 1.87z" stroke="#000" stroke-opacity="0" fill="#fff"/><path d="M-1550-570h60v60h-60v-60z" stroke="#000" stroke-opacity="0" fill-opacity="0"/><use xlink:href="#d" transform="matrix(1,0,0,1,-1610,-471) translate(38.074999999999996 14.4)"/><use xlink:href="#e" transform="matrix(1,0,0,1,-1610,-471) translate(95.975 14.4)"/><path d="M-1716.72-539.52h-22.78v-.96h22.78zm120.34 0h-38.8v-.96h38.8z" stroke="#3a414a" stroke-width=".05" fill="#3a414a"/><path d="M-1739.5-539.52h-.5v-.96h.5z" fill="#3a414a"/><path stroke="#3a414a" stroke-width=".05" fill="#3a414a"/><path d="M-1581.62-540l-14.26 4.63v-9.26z" fill="#3a414a"/><path d="M-1580.08-540l-16.28 5.3v-10.6zm-15.33 3.98l12.25-3.98-12.26-3.98z" stroke="#3a414a" stroke-width=".05" fill="#3a414a"/><use xlink:href="#f" transform="matrix(1,0,0,1,-1716.7213998998404,-550.8) translate(0.005000000000002558 14.4)"/><use xlink:href="#g" transform="matrix(1,0,0,1,-1716.7213998998404,-550.8) translate(52.55500000000001 14.4)"/><path d="M-1300-760h120v120h-120z" fill-opacity="0"/><path d="M-1300-640h120v-120h-120v120z" stroke="#000" stroke-opacity="0" fill="#198038"/><path d="M-1249.76-720.06c0 1.38-1.12 2.5-2.5 2.5s-2.5-1.12-2.5-2.5 1.12-2.5 2.5-2.5 2.5 1.12 2.5 2.5z" stroke="#000" stroke-opacity="0" fill="#fff"/><path d="M-1220.34-712.48h-37.53c-2.07 0-3.73-1.68-3.73-3.75v-7.5c0-2.07 1.66-3.75 3.73-3.75h37.53c2.07 0 3.74 1.68 3.74 3.75v7.5c0 2.07-1.67 3.75-3.74 3.75zm-37.53-11.25v7.5h37.53v-7.5h-37.53zM-1249.76-701.34c0 1.38-1.12 2.5-2.5 2.5s-2.5-1.12-2.5-2.5 1.12-2.5 2.5-2.5 2.5 1.12 2.5 2.5z" stroke="#000" stroke-opacity="0" fill="#fff"/><path d="M-1220.34-693.76h-37.53c-2.07 0-3.73-1.68-3.73-3.75v-7.5c0-2.08 1.66-3.76 3.73-3.76h37.53c2.07 0 3.74 1.68 3.74 3.75v7.5c0 2.06-1.67 3.74-3.74 3.74zm-37.53-11.25v7.5h37.53v-7.5h-37.53zM-1249.76-682.5c0 1.38-1.12 2.5-2.5 2.5s-2.5-1.12-2.5-2.5 1.12-2.5 2.5-2.5 2.5 1.12 2.5 2.5z" stroke="#000" stroke-opacity="0" fill="#fff"/><path d="M-1220.34-675.04h-37.53c-2.07 0-3.73-1.68-3.73-3.75v-7.5c0-2.06 1.66-3.74 3.73-3.74h37.53c2.07 0 3.74 1.68 3.74 3.75v7.5c0 2.08-1.67 3.76-3.74 3.76zm-37.53-11.25v7.5h37.53v-7.5h-37.53z" stroke="#000" stroke-opacity="0" fill="#fff"/><path d="M-1269.16-731.32h60v60h-60v-60z" stroke="#000" stroke-opacity="0" fill-opacity="0"/><use xlink:href="#h" transform="matrix(1,0,0,1,-1330,-631) translate(30.549999999999997 14.4)"/><use xlink:href="#i" transform="matrix(1,0,0,1,-1330,-631) translate(89.55 14.4)"/><path d="M-1300-600h120v120h-120z" fill-opacity="0"/><path d="M-1300-480h120v-120h-120v120z" stroke="#000" stroke-opacity="0" fill="#198038"/><path d="M-1249.76-560.06c0 1.38-1.12 2.5-2.5 2.5s-2.5-1.12-2.5-2.5 1.12-2.5 2.5-2.5 2.5 1.12 2.5 2.5z" stroke="#000" stroke-opacity="0" fill="#fff"/><path d="M-1220.34-552.48h-37.53c-2.07 0-3.73-1.68-3.73-3.75v-7.5c0-2.07 1.66-3.75 3.73-3.75h37.53c2.07 0 3.74 1.68 3.74 3.75v7.5c0 2.07-1.67 3.75-3.74 3.75zm-37.53-11.25v7.5h37.53v-7.5h-37.53zM-1249.76-541.34c0 1.38-1.12 2.5-2.5 2.5s-2.5-1.12-2.5-2.5 1.12-2.5 2.5-2.5 2.5 1.12 2.5 2.5z" stroke="#000" stroke-opacity="0" fill="#fff"/><path d="M-1220.34-533.76h-37.53c-2.07 0-3.73-1.68-3.73-3.75v-7.5c0-2.08 1.66-3.76 3.73-3.76h37.53c2.07 0 3.74 1.68 3.74 3.75v7.5c0 2.06-1.67 3.74-3.74 3.74zm-37.53-11.25v7.5h37.53v-7.5h-37.53zM-1249.76-522.5c0 1.38-1.12 2.5-2.5 2.5s-2.5-1.12-2.5-2.5 1.12-2.5 2.5-2.5 2.5 1.12 2.5 2.5z" stroke="#000" stroke-opacity="0" fill="#fff"/><path d="M-1220.34-515.04h-37.53c-2.07 0-3.73-1.68-3.73-3.75v-7.5c0-2.06 1.66-3.74 3.73-3.74h37.53c2.07 0 3.74 1.68 3.74 3.75v7.5c0 2.08-1.67 3.76-3.74 3.76zm-37.53-11.25v7.5h37.53v-7.5h-37.53z" stroke="#000" stroke-opacity="0" fill="#fff"/><path d="M-1269.16-571.32h60v60h-60v-60z" stroke="#000" stroke-opacity="0" fill-opacity="0"/><use xlink:href="#j" transform="matrix(1,0,0,1,-1330,-471) translate(38.599999999999994 14.4)"/><use xlink:href="#i" transform="matrix(1,0,0,1,-1330,-471) translate(81.5 14.4)"/><path d="M-1300-420h120v120h-120z" fill-opacity="0"/><path d="M-1300-300h120v-120h-120v120z" stroke="#000" stroke-opacity="0" fill="#198038"/><path d="M-1249.76-380.06c0 1.38-1.12 2.5-2.5 2.5s-2.5-1.12-2.5-2.5 1.12-2.5 2.5-2.5 2.5 1.12 2.5 2.5z" stroke="#000" stroke-opacity="0" fill="#fff"/><path d="M-1220.34-372.48h-37.53c-2.07 0-3.73-1.68-3.73-3.75v-7.5c0-2.07 1.66-3.75 3.73-3.75h37.53c2.07 0 3.74 1.68 3.74 3.75v7.5c0 2.07-1.67 3.75-3.74 3.75zm-37.53-11.25v7.5h37.53v-7.5h-37.53zM-1249.76-361.34c0 1.38-1.12 2.5-2.5 2.5s-2.5-1.12-2.5-2.5 1.12-2.5 2.5-2.5 2.5 1.12 2.5 2.5z" stroke="#000" stroke-opacity="0" fill="#fff"/><path d="M-1220.34-353.76h-37.53c-2.07 0-3.73-1.68-3.73-3.75v-7.5c0-2.08 1.66-3.76 3.73-3.76h37.53c2.07 0 3.74 1.68 3.74 3.75v7.5c0 2.06-1.67 3.74-3.74 3.74zm-37.53-11.25v7.5h37.53v-7.5h-37.53zM-1249.76-342.5c0 1.38-1.12 2.5-2.5 2.5s-2.5-1.12-2.5-2.5 1.12-2.5 2.5-2.5 2.5 1.12 2.5 2.5z" stroke="#000" stroke-opacity="0" fill="#fff"/><path d="M-1220.34-335.04h-37.53c-2.07 0-3.73-1.68-3.73-3.75v-7.5c0-2.06 1.66-3.74 3.73-3.74h37.53c2.07 0 3.74 1.68 3.74 3.75v7.5c0 2.08-1.67 3.76-3.74 3.76zm-37.53-11.25v7.5h37.53v-7.5h-37.53z" stroke="#000" stroke-opacity="0" fill="#fff"/><path d="M-1269.16-391.32h60v60h-60v-60z" stroke="#000" stroke-opacity="0" fill-opacity="0"/><use xlink:href="#k" transform="matrix(1,0,0,1,-1330,-291) translate(29.074999999999996 14.4)"/><use xlink:href="#i" transform="matrix(1,0,0,1,-1330,-291) translate(91.025 14.4)"/><path d="M-1292-1020h27.36v120H-1292v-120zM-1253.72-1020h27.37v120h-27.37v-120zM-1215.37-1020h27.36v120h-27.37v-120z" fill="#876929"/><path d="M-1292-1020h27.36v120H-1292v-120zM-1253.72-1020h27.37v120h-27.37v-120zM-1215.37-1020h27.36v120h-27.37v-120z" fill="#876929"/><path d="M-1292-1020h27.36v113.23H-1292V-1020zM-1253.72-1020h27.37v113.23h-27.37V-1020zM-1215.37-1020h27.36v113.23h-27.37V-1020z" fill="#d9a741"/><path d="M-1248.25-1014.55h16.4v102.32h-16.4v-102.32zM-1209.9-1014.55h16.4v102.32h-16.4v-102.32z" fill="#fff"/><use xlink:href="#l" transform="matrix(1,0,0,1,-1292,-900) translate(33 14.4)"/><path d="M-1437.1-954.24l.57-4.56c4.76 3 6.38 4.68 6.85 5.4-.82.12-2.9.24-7.43-.84zm-10.9 39.96c-.13.12-.13.24-.13.36 0 .36-1.04 2.04-5.57 3.84-2.08.72-4.52 1.44-7.3 2.16-7.08 1.56-15.78 2.52-24.48 2.52-23.2 0-37.24-6-37.24-8.52 0-.12 0-.24-.1-.36l-10.45-77.76c.7.48 1.4.84 2.1 1.2.22.12.45.12.68.24.7.36 1.4.6 2.1.96.35.12.58.24.93.36.8.24 1.5.48 2.43.84.12 0 .35.12.58.12 1.05.36 2.2.72 3.25.96.34.12.57.12.92.24.93.24 1.74.48 2.67.6.34.12.68.24 1.15.24 1.04.24 2.1.48 3.13.6.12.12.35.12.58.12 1.28.24 2.55.48 3.83.6.34.12.8.12 1.15.24l3 .36c.36 0 .83.12 1.17.12l3.72.36h.46l4.18.36h1.16c1.04.12 2.08.12 3.24.12.35 0 .82 0 1.16.12h8.48c.34-.12.8-.12 1.15-.12 1.16 0 2.2 0 3.25-.12h1.16l4.18-.36h.34l3.83-.36c.35 0 .8-.12 1.16-.12l3-.36c.36-.12.82-.12 1.17-.24 1.27-.12 2.55-.36 3.83-.6h.58l3.13-.72c.47 0 .82-.12 1.17-.24.93-.12 1.85-.36 2.67-.6.34-.12.58-.12.92-.24 1.05-.24 2.2-.6 3.25-.96.24 0 .36-.12.6-.12.8-.36 1.62-.6 2.43-.84.35-.12.58-.24.93-.36.7-.36 1.4-.6 2.08-.96.24-.12.47-.12.58-.24.82-.36 1.5-.72 2.2-1.2l-4.86 36.24c-12.53-3.84-29.24-11.4-36.78-15 0-3-2.55-5.4-5.56-5.4-3.02 0-5.46 2.4-5.46 5.4 0 3 2.44 5.52 5.46 5.52 1.04 0 1.97-.36 2.78-.72 8.58 3.96 25.87 11.76 38.86 15.72l-4.87 36zm-37.48-100.32c28.65 0 48.72 8.88 49.18 13.68l-.1.6c0 .12-.13.36-.24.48-.12.12-.12.36-.24.48-.1.12-.34.36-.46.48s-.23.36-.46.48c-.12.12-.35.36-.58.48-.24.24-.47.36-.7.48-.23.24-.58.36-.8.6-.24.12-.48.24-.82.36-.35.24-.7.36-1.05.6-.35.12-.58.24-.93.36-.46.24-.92.36-1.4.6-.34.12-.57.24-1.03.36-.48.24-.94.36-1.52.6-.35.12-.7.24-1.16.36-.58.24-1.16.36-1.74.48-.46.12-.8.36-1.28.48-.58.12-1.27.24-1.97.48-.46.12-.93.24-1.4.24-.7.24-1.38.36-2.2.48-.46.12-.92.24-1.5.36-.7.12-1.5.24-2.32.36-.57.12-1.04.24-1.62.24-.8.12-1.62.24-2.55.36-.58.12-1.04.24-1.62.24l-2.78.36c-.58 0-1.16.12-1.74.12-.92.12-1.85.12-2.9.24-.58 0-1.16.12-1.85.12-1.05.12-2.1.12-3.13.12-.58.12-1.16.12-1.86.12-1.62 0-3.36.12-5.22.12-1.74 0-3.48-.12-5.1-.12-.7 0-1.28 0-1.86-.12-1.04 0-2.1 0-3.13-.12-.7 0-1.28-.12-1.86-.12-.93-.12-1.97-.12-2.9-.24-.58 0-1.16-.12-1.62-.12-1.05-.12-1.97-.24-2.9-.36-.58 0-1.05-.12-1.63-.24-.8-.12-1.74-.24-2.66-.36-.47 0-.93-.12-1.4-.24l-2.55-.36-1.38-.36c-.7-.12-1.5-.24-2.2-.48-.47 0-.93-.12-1.28-.24-.7-.24-1.4-.36-2.1-.48-.45-.12-.8-.24-1.15-.36-.7-.24-1.28-.36-1.86-.6l-1.05-.36c-.6-.12-1.17-.36-1.75-.6-.23-.12-.58-.24-.93-.36-.46-.12-.92-.36-1.4-.6-.34-.12-.57-.24-.8-.36-.46-.24-.8-.36-1.16-.6-.35-.12-.46-.24-.7-.36-.34-.24-.7-.36-1.04-.6-.12-.12-.35-.24-.46-.48-.24-.12-.58-.36-.7-.48-.23-.12-.35-.36-.46-.48l-.47-.48c-.1-.12-.1-.36-.23-.48-.12-.12-.23-.36-.23-.48l-.12-.6c.47-4.8 20.53-13.68 49.07-13.68zm61.36 60.6c-.58-3.12-4.17-6.36-11.6-10.56l4.76-34.8.12-1.08v-.36c0-11.28-28.77-19.2-54.64-19.2-25.75 0-54.52 7.92-54.52 19.2v.36l.12 1.08 11.6 85.56c.46 10.08 26.44 13.8 42.8 13.8 9.16 0 18.2-.96 25.75-2.64 3.02-.72 5.7-1.56 8-2.4 5.92-2.4 9.05-5.28 9.17-8.76l4.76-35.04c2.78.6 5.1.96 6.96.96 2.66 0 4.52-.6 5.68-2.04.93-1.08 1.4-2.52 1.04-4.08z" stroke="#000" stroke-opacity="0" fill="#7aa116"/><use xlink:href="#m" transform="matrix(1,0,0,1,-1570,-891) translate(38.025 14.4)"/><use xlink:href="#n" transform="matrix(1,0,0,1,-1570,-891) translate(65.025 14.4)"/><path d="M-1439.86-539.52h-19.64v-.96h19.64zm154.32-160h-82.44l-1.82.14-1.76.42-1.67.7-1.54.94-1.38 1.17-1.17 1.38-.95 1.54-.7 1.67-.4 1.76-.16 1.82v136l-.15 1.93-.45 1.9-.75 1.8-1.03 1.68-1.28 1.5-1.5 1.26-1.66 1.02-1.8.75-1.9.45-1.92.15v-.95l1.76-.14 1.76-.42 1.67-.7 1.54-.94 1.38-1.17 1.17-1.38.95-1.54.7-1.67.4-1.76.16-1.82v-136l.15-1.93.45-1.9.75-1.8 1.03-1.68 1.28-1.5 1.5-1.26 1.66-1.02 1.8-.75 1.9-.45 1.94-.15h82.48z" stroke="#3a414a" stroke-width=".05" fill="#3a414a"/><path d="M-1459.5-539.52h-.5v-.96h.5z" fill="#3a414a"/><path stroke="#3a414a" stroke-width=".05" fill="#3a414a"/><path d="M-1270.78-700l-14.26 4.63v-9.26z" fill="#fff"/><path d="M-1269.24-700l-16.28 5.3v-10.6zm-15.33 3.98l12.25-3.98-12.25-3.98z" stroke="#3a414a" stroke-width=".05" fill="#3a414a"/><use xlink:href="#o" transform="matrix(1,0,0,1,-1439.8585785652674,-550.8) translate(0.004999999999999005 14.4)"/><path d="M-1439.86-539.52h-19.64v-.96h19.64zm123.48 0h-75.58v-.96h75.58z" stroke="#3a414a" stroke-width=".05" fill="#3a414a"/><path d="M-1459.5-539.52h-.5v-.96h.5z" fill="#3a414a"/><path stroke="#3a414a" stroke-width=".05" fill="#3a414a"/><path d="M-1301.62-540l-14.26 4.63v-9.26z" fill="#fff"/><path d="M-1300.08-540l-16.28 5.3v-10.6zm-15.33 3.98l12.25-3.98-12.26-3.98zM-1390.05-540.32l1.9.45 1.8.75 1.68 1.03 1.5 1.28 1.26 1.5 1.02 1.66.75 1.8.45 1.9.15 1.94v156l.15 1.82.42 1.76.7 1.67.94 1.54 1.17 1.38 1.38 1.17 1.54.95 1.67.7 1.76.4 1.82.15h51.6v.96h-51.64l-1.93-.16-1.9-.45-1.8-.75-1.68-1.03-1.5-1.28-1.26-1.5-1.02-1.66-.75-1.8-.45-1.9-.15-1.94v-156l-.15-1.82-.42-1.76-.7-1.67-.94-1.54-1.17-1.38-1.38-1.17-1.54-.95-1.67-.7-1.76-.4-1.76-.15v-.95zm-69.45.8v-.96h19.64v.96z" stroke="#3a414a" stroke-width=".05" fill="#3a414a"/><path d="M-1459.5-539.52h-.5v-.96h.5z" fill="#3a414a"/><path stroke="#3a414a" stroke-width=".05" fill="#3a414a"/><path d="M-1301.62-360l-14.26 4.63v-9.26z" fill="#fff"/><path d="M-1300.08-360l-16.28 5.3v-10.6zm-15.33 3.98l12.25-3.98-12.26-3.98zM-1799.53-600.5h-.94v-180.8h.94zm243.15-359.02h-231.6l-1.82.14-1.76.42-1.67.7-1.54.94-1.38 1.17-1.17 1.38-.95 1.54-.7 1.67-.4 1.76-.16 1.82v145.07h-.94v-145.12l.15-1.93.45-1.9.75-1.8 1.03-1.68 1.28-1.5 1.5-1.26 1.66-1.02 1.8-.75 1.9-.45 1.94-.15h231.64z" stroke="#3a414a" stroke-width=".05" fill="#3a414a"/><path d="M-1799.53-600h-.94v-.5h.94z" fill="#3a414a"/><path stroke="#3a414a" stroke-width=".05" fill="#3a414a"/><path d="M-1541.62-960l-14.26 4.63v-9.26z" fill="#fff"/><path d="M-1540.08-960l-16.28 5.3v-10.6zm-15.33 3.98l12.25-3.98-12.26-3.98z" stroke="#3a414a" stroke-width=".05" fill="#3a414a"/><use xlink:href="#p" transform="matrix(1,0,0,1,-1945.775,-802.909442993908) translate(0.0049999999999954525 14.4)"/><use xlink:href="#q" transform="matrix(1,0,0,1,-1945.775,-802.909442993908) translate(52.905 14.4)"/><use xlink:href="#r" transform="matrix(1,0,0,1,-1945.775,-802.909442993908) translate(107.855 14.4)"/><use xlink:href="#s" transform="matrix(1,0,0,1,-1945.775,-802.909442993908) translate(169.755 14.4)"/><use xlink:href="#t" transform="matrix(1,0,0,1,-1945.775,-802.909442993908) translate(243.655 14.4)"/><path d="M-1391.45-959.52h-32.05v-.96h32.05zm83.07 0h-16.17v-.96h16.17z" stroke="#3a414a" stroke-width=".05" fill="#3a414a"/><path d="M-1423.5-959.52h-3.5v-.96h3.5z" fill="#3a414a"/><path stroke="#3a414a" stroke-width=".05" fill="#3a414a"/><path d="M-1293.62-960l-14.26 4.63v-9.26z" fill="#fff"/><path d="M-1292.08-960l-16.28 5.3v-10.6zm-15.33 3.98l12.25-3.98-12.26-3.98z" stroke="#3a414a" stroke-width=".05" fill="#3a414a"/><use xlink:href="#u" transform="matrix(1,0,0,1,-1391.45,-970.8) translate(0.005000000000002558 14.4)"/><use xlink:href="#v" transform="matrix(1,0,0,1,-1391.45,-970.8) translate(25.005000000000003 14.4)"/><path d="M-1239.53-776.38h-.94v-15.52h.94zm0-58.72h-.94v-44.4h.94z" stroke="#3a414a" stroke-width=".05" fill="#3a414a"/><path d="M-1239.53-879.5h-.94v-.5h.94z" fill="#3a414a"/><path stroke="#3a414a" stroke-width=".05" fill="#3a414a"/><path d="M-1240-761.62l-4.63-14.26h9.27z" fill="#fff"/><path d="M-1240-760.08l-5.3-16.28h10.6zm-3.98-15.33l3.98 12.25 3.98-12.26z" stroke="#3a414a" stroke-width=".05" fill="#3a414a"/><use xlink:href="#w" transform="matrix(1,0,0,1,-1296.95,-835.0986945169717) translate(0.005000000000002558 14.4)"/><use xlink:href="#x" transform="matrix(1,0,0,1,-1296.95,-835.0986945169717) translate(30.505000000000006 36)"/><use xlink:href="#y" transform="matrix(1,0,0,1,-1296.95,-835.0986945169717) translate(60.50500000000001 36)"/><path d="M-980-760h120v120h-120z" fill-opacity="0"/><path d="M-980-760h120v120h-120v-120z" stroke="#000" stroke-opacity="0" fill="#0f62fe"/><path d="M-920-724.36c-9.95 0-20.64 2.34-20.64 7.5v33.72c0 5.16 10.7 7.5 20.64 7.5 9.95 0 20.64-2.34 20.64-7.5v-33.72c0-5.16-10.7-7.5-20.64-7.5zm0 3.75c10.9 0 16.5 2.67 16.88 3.74-.37 1.08-5.98 3.75-16.88 3.75-10.98 0-16.6-2.73-16.88-3.7v-.06c.28-1.02 5.9-3.75 16.88-3.75zm-16.88 8.27c4 2 10.56 2.98 16.88 2.98 6.32 0 12.88-.98 16.88-2.98v6.68c-.28 1.07-5.9 3.8-16.88 3.8-10.98 0-16.6-2.78-16.88-3.75v-6.73zm0 11.26c4 2 10.56 2.92 16.88 2.92 6.32 0 12.88-.92 16.88-2.92v6.67c-.28 1.03-5.9 3.75-16.88 3.75-10.98 0-16.6-2.72-16.88-3.75v-6.67zM-920-679.4c-10.98 0-16.6-2.72-16.88-3.74v-6.68c4 2 10.56 2.93 16.88 2.93 6.32 0 12.88-.92 16.88-2.92v6.68c-.28 1.02-5.9 3.75-16.88 3.75z" stroke="#000" stroke-opacity="0" fill="#fff"/><path d="M-950-730h60v60h-60v-60z" stroke="#000" stroke-opacity="0" fill-opacity="0"/><use xlink:href="#z" transform="matrix(1,0,0,1,-1010,-631) translate(51.525 14.4)"/><path d="M-1208.66-700h214.17" stroke="#3a414a" fill="none"/><path d="M-1209.16-699.52h-3v-.96h3z" stroke="#3a414a" stroke-width=".05" fill="#3a414a"/><path d="M-981-700l-13 7.5v-15z" stroke="#3a414a" fill="#3a414a"/><path d="M-1208.66-540h102.08a12 12 0 0 0 12-12v-136a12 12 0 0 1 12-12h88.1" stroke="#3a414a" fill="none"/><path d="M-1209.16-539.52h-3v-.96h3z" stroke="#3a414a" stroke-width=".05" fill="#3a414a"/><path d="M-981-700l-13 7.5v-15z" stroke="#3a414a" fill="#3a414a"/><path d="M-1222.47-360h115.9a12 12 0 0 0 12-12v-316a12 12 0 0 1 12-12h88.08M-1222.66-360.2v.5" stroke="#3a414a" fill="none"/><path d="M-981-700l-13 7.5v-15z" stroke="#3a414a" fill="#3a414a"/><path d="M-1000-420h120v120h-120v-120z" stroke="#fff" stroke-opacity="0" stroke-width="2" fill="#693cc5"/><path d="M-964-376.4h-14.4c-.88 0-1.6.7-1.6 1.58v51.24c0 .87.72 1.58 1.6 1.58h14.4c.88 0 1.6-.7 1.6-1.58v-51.24c0-.87-.72-1.58-1.6-1.58zm-1.6 51.2h-11.2v-48h11.2zM-941.6-332.54v8.93c0 .87-.72 1.6-1.6 1.6h-14.4c-.88 0-1.6-.73-1.6-1.6v-27.6c.55 3.12 1.53 5.7 3.2 8.38v17.6h11.2v-8.37c1.1.48 2.06.8 3.2 1.06zM-941.6-384.4v5.68c-1.16.3-2.1.65-3.2 1.1v-5.18H-956v14.4c-1.67 2.7-2.65 5.27-3.2 8.38v-24.37c0-.87.72-1.6 1.6-1.6h14.4c.88 0 1.6.73 1.6 1.6zM-924-331.22v6h-11.2v-6.38c-1.12 0-2.07-.08-3.2-.23v8.22c0 .9.72 1.6 1.6 1.6h14.4c.88 0 1.6-.7 1.6-1.6v-4.47zm1.6-67.58h-14.4c-.88 0-1.6.7-1.6 1.6v17.83c1.13-.15 2.08-.23 3.2-.23v-15.97h11.2v18.74c1.18.7 2.14 1.3 3.2 2.07v-22.43c0-.9-.72-1.6-1.6-1.6zM-901.6-390.8H-916c-.88 0-1.6.72-1.6 1.6v17.36c1.3 1.4 2.25 2.72 3.2 4.4v-20.13h11.2v49.14l3.2 3.23v-54c0-.88-.72-1.6-1.6-1.6z" stroke="#fff" stroke-opacity="0" stroke-width="2" fill="#fff"/><path d="M-901.95-332.54l-14.4-14.43c2.8-6.08 2.63-12.44-.5-18.4-5.4-10.13-17.95-14-28.1-8.64-10.14 5.36-14.06 17.9-8.68 28.08 5.38 10.17 17.93 14.04 28.14 8.68l14.13 14.16c2.64 2.6 6.84 2.6 9.42 0 2.63-2.6 2.63-6.8 0-9.4zm-50.84-23.1c0-9.7 7.85-17.6 17.6-17.6 9.7 0 17.6 7.9 17.6 17.6 0 9.72-7.9 17.63-17.6 17.63-9.75 0-17.6-7.92-17.6-17.65zm48.6 30.23c-1.34 1.32-3.52 1.32-4.93 0l-13.62-13.66c1.96-1.44 3.42-3 4.82-5.04l13.74 13.83c1.35 1.32 1.35 3.54 0 4.86z" stroke="#fff" stroke-opacity="0" stroke-width="2" fill="#fff"/><path d="M-942.3-348c-4.63-3.32-5.7-9.78-2.38-14.4 3.32-4.66 9.77-5.73 14.4-2.4.1.06.2.12.3.2l-1.92 2.56c-3.15-2.34-7.63-1.67-9.97 1.5-2.35 3.17-1.68 7.63 1.48 9.97z" stroke="#fff" stroke-opacity="0" stroke-width="2" fill="#fff"/><use xlink:href="#A" transform="matrix(1,0,0,1,-1030,-291) translate(36.574999999999996 14.4)"/><path d="M-1208.66-360h192.28" stroke="#3a414a" fill="none"/><path d="M-1209.16-359.52h-3v-.96h3z" stroke="#3a414a" stroke-width=".05" fill="#3a414a"/><path d="M-1001.62-360l-14.26 4.63v-9.26z" stroke="#3a414a" fill="#3a414a"/><path d="M-1016.9-543.2c-.95.45-1.85.65-2.9.64-3.72 0-5.56-2.45-5.56-7.35-.15-2.03.32-3.8 1.43-5.5 1.05-1.32 2.53-1.95 4.2-1.83.98-.02 1.8.13 2.7.5v1.7c-.83-.3-1.58-.46-2.47-.5-1.14-.1-2.16.37-2.85 1.28-.74 1.3-1.02 2.6-.9 4.1v.5c-.12 1.48.16 2.77.87 4.08.67.9 1.68 1.36 2.8 1.28.97-.07 1.78-.2 2.7-.52zM-1007.66-542.77l-1-3.88h-4.33l-.96 3.88h-2.06l4.1-14.38h2.18l4.16 14.38zm-4.96-5.4h3.58l-1.78-7.04zM-996.17-543.2c-.95.45-1.85.65-2.9.64-3.72 0-5.57-2.45-5.57-7.35-.15-2.03.32-3.8 1.42-5.5 1.07-1.32 2.54-1.95 4.23-1.83.97 0 1.78.17 2.68.55v1.7c-.83-.3-1.57-.48-2.45-.55-1.15-.1-2.17.37-2.87 1.28-.73 1.3-1 2.6-.9 4.1v.5c-.12 1.48.16 2.77.9 4.08.65.9 1.65 1.36 2.78 1.28.96-.07 1.77-.2 2.7-.52zM-986.7-542.77v-6.53h-5.22v6.53h-2v-14.38h2v6.22h5.23v-6.22h2.02v14.38zM-981.57-542.77v-14.38h7.3v1.6h-5.3v4.54h4.35v1.62h-4.36v5h5.26v1.6z" stroke="#fff" stroke-opacity="0" fill="#3b48cc"/><path d="M-970.96-490h-58c-6 .08-10.96-4.8-11.04-10.88v-58.08c-.08-6 4.8-10.96 10.88-11.04H-970.88c6.08.08 10.96 5.04 10.88 11.04v58.08c-.08 6-4.96 10.88-10.96 10.88zm-58-76.56h-.08c-4.24 0-7.6 3.44-7.52 7.6v58.08c0 4.16 3.44 7.52 7.6 7.44h58.08c4.16 0 7.52-3.36 7.6-7.52v-58-.08c-.08-4.24-3.52-7.6-7.68-7.52z" stroke="#fff" stroke-opacity="0" fill="#3b48cc"/><g><use xlink:href="#B" transform="matrix(1,0,0,1,-1070,-481) translate(42.55 14.4)"/></g><path d="M-1056.38-511.84h-123.12" stroke="#3a414a" fill="none"/><path d="M-1041.62-511.84l-14.26 4.64v-9.27z" stroke="#3a414a" fill="#3a414a"/><path d="M-1179.5-511.84h-.5" stroke="#3a414a" fill="none"/><path d="M-1140.05-700.32l1.9.45 1.8.75 1.68 1.03 1.5 1.28 1.26 1.5 1.02 1.66.75 1.8.45 1.9.15 1.94v146l.15 1.82.42 1.76.7 1.67.94 1.54 1.17 1.38 1.38 1.17 1.54.95 1.67.7 1.76.4 1.82.15h61.6v.96h-61.64l-1.93-.16-1.9-.45-1.8-.75-1.68-1.03-1.5-1.28-1.26-1.5-1.02-1.66-.75-1.8-.45-1.9-.15-1.94v-146l-.15-1.82-.42-1.76-.7-1.67-.94-1.54-1.17-1.38-1.38-1.17-1.54-.95-1.67-.7-1.76-.4-1.82-.15h-66.64v-.96h66.68z" stroke="#3a414a" stroke-width=".05" fill="#3a414a"/><path d="M-1041.62-530l-14.26 4.63v-9.26z" fill="#3a414a"/><path d="M-1040.08-530l-16.28 5.3v-10.6zm-15.33 3.98l12.25-3.98-12.26-3.98z" stroke="#3a414a" stroke-width=".05" fill="#3a414a"/><path d="M-1209.16-699.52h-3v-.96h3z" fill="#3a414a"/><path stroke="#3a414a" stroke-width=".05" fill="#3a414a"/><path d="M-1054.84-495.38h-42.4a12 12 0 0 0-12 12V-392a12 12 0 0 1-12 12h-58.26" stroke="#3a414a" fill="none"/><path d="M-1040.07-495.38l-14.27 4.64V-500z" stroke="#3a414a" fill="#3a414a"/><path d="M-1179.5-380h-.5" stroke="#3a414a" fill="none"/><defs><path fill="#fff" d="M197 0v-115H63V0H30v-248h33v105h134v-105h34V0h-34" id="C"/><path fill="#fff" d="M30 0v-248h33v221h125V0H30" id="D"/><path fill="#fff" d="M30-248c118-7 216 8 213 122C240-48 200 0 122 0H30v-248zM63-27c89 8 146-16 146-99s-60-101-146-95v194" id="E"/><g id="a"><use transform="matrix(0.08641975308641976,0,0,0.08641975308641976,0,0)" xlink:href="#C"/><use transform="matrix(0.08641975308641976,0,0,0.08641975308641976,22.38271604938272,0)" xlink:href="#D"/><use transform="matrix(0.08641975308641976,0,0,0.08641975308641976,39.66666666666667,0)" xlink:href="#E"/></g><path fill="#3a414a" d="M266 0h-40l-56-210L115 0H75L2-248h35L96-30l15-64 43-154h32l59 218 59-218h35" id="F"/><path fill="#3a414a" d="M100-194c63 0 86 42 84 106H49c0 40 14 67 53 68 26 1 43-12 49-29l28 8c-11 28-37 45-77 45C44 4 14-33 15-96c1-61 26-98 85-98zm52 81c6-60-76-77-97-28-3 7-6 17-6 28h103" id="G"/><path fill="#3a414a" d="M115-194c53 0 69 39 70 98 0 66-23 100-70 100C84 3 66-7 56-30L54 0H23l1-261h32v101c10-23 28-34 59-34zm-8 174c40 0 45-34 45-75 0-40-5-75-45-74-42 0-51 32-51 76 0 43 10 73 51 73" id="H"/><g id="b"><use transform="matrix(0.05,0,0,0.05,0,0)" xlink:href="#F"/><use transform="matrix(0.05,0,0,0.05,16.599999999999998,0)" xlink:href="#G"/><use transform="matrix(0.05,0,0,0.05,26.599999999999994,0)" xlink:href="#H"/></g><path fill="#3a414a" d="M205 0l-28-72H64L36 0H1l101-248h38L239 0h-34zm-38-99l-47-123c-12 45-31 82-46 123h93" id="I"/><path fill="#3a414a" d="M115-194c55 1 70 41 70 98S169 2 115 4C84 4 66-9 55-30l1 105H24l-1-265h31l2 30c10-21 28-34 59-34zm-8 174c40 0 45-34 45-75s-6-73-45-74c-42 0-51 32-51 76 0 43 10 73 51 73" id="J"/><path fill="#3a414a" d="M24 0v-261h32V0H24" id="K"/><path fill="#3a414a" d="M24-231v-30h32v30H24zM24 0v-190h32V0H24" id="L"/><path fill="#3a414a" d="M96-169c-40 0-48 33-48 73s9 75 48 75c24 0 41-14 43-38l32 2c-6 37-31 61-74 61-59 0-76-41-82-99-10-93 101-131 147-64 4 7 5 14 7 22l-32 3c-4-21-16-35-41-35" id="M"/><path fill="#3a414a" d="M141-36C126-15 110 5 73 4 37 3 15-17 15-53c-1-64 63-63 125-63 3-35-9-54-41-54-24 1-41 7-42 31l-33-3c5-37 33-52 76-52 45 0 72 20 72 64v82c-1 20 7 32 28 27v20c-31 9-61-2-59-35zM48-53c0 20 12 33 32 33 41-3 63-29 60-74-43 2-92-5-92 41" id="N"/><path fill="#3a414a" d="M59-47c-2 24 18 29 38 22v24C64 9 27 4 27-40v-127H5v-23h24l9-43h21v43h35v23H59v120" id="O"/><path fill="#3a414a" d="M100-194c62-1 85 37 85 99 1 63-27 99-86 99S16-35 15-95c0-66 28-99 85-99zM99-20c44 1 53-31 53-75 0-43-8-75-51-75s-53 32-53 75 10 74 51 75" id="P"/><path fill="#3a414a" d="M117-194c89-4 53 116 60 194h-32v-121c0-31-8-49-39-48C34-167 62-67 57 0H25l-1-190h30c1 10-1 24 2 32 11-22 29-35 61-36" id="Q"/><g id="c"><use transform="matrix(0.05,0,0,0.05,0,0)" xlink:href="#I"/><use transform="matrix(0.05,0,0,0.05,12,0)" xlink:href="#J"/><use transform="matrix(0.05,0,0,0.05,22,0)" xlink:href="#J"/><use transform="matrix(0.05,0,0,0.05,32,0)" xlink:href="#K"/><use transform="matrix(0.05,0,0,0.05,35.95,0)" xlink:href="#L"/><use transform="matrix(0.05,0,0,0.05,39.900000000000006,0)" xlink:href="#M"/><use transform="matrix(0.05,0,0,0.05,48.900000000000006,0)" xlink:href="#N"/><use transform="matrix(0.05,0,0,0.05,58.900000000000006,0)" xlink:href="#O"/><use transform="matrix(0.05,0,0,0.05,63.900000000000006,0)" xlink:href="#L"/><use transform="matrix(0.05,0,0,0.05,67.85000000000001,0)" xlink:href="#P"/><use transform="matrix(0.05,0,0,0.05,77.85000000000001,0)" xlink:href="#Q"/></g><path fill="#3a414a" d="M185-189c-5-48-123-54-124 2 14 75 158 14 163 119 3 78-121 87-175 55-17-10-28-26-33-46l33-7c5 56 141 63 141-1 0-78-155-14-162-118-5-82 145-84 179-34 5 7 8 16 11 25" id="R"/><path fill="#3a414a" d="M114-163C36-179 61-72 57 0H25l-1-190h30c1 12-1 29 2 39 6-27 23-49 58-41v29" id="S"/><path fill="#3a414a" d="M108 0H70L1-190h34L89-25l56-165h34" id="T"/><g id="d"><use transform="matrix(0.05,0,0,0.05,0,0)" xlink:href="#R"/><use transform="matrix(0.05,0,0,0.05,12,0)" xlink:href="#G"/><use transform="matrix(0.05,0,0,0.05,22,0)" xlink:href="#S"/><use transform="matrix(0.05,0,0,0.05,27.950000000000003,0)" xlink:href="#T"/><use transform="matrix(0.05,0,0,0.05,36.95,0)" xlink:href="#G"/><use transform="matrix(0.05,0,0,0.05,46.95,0)" xlink:href="#S"/></g><path fill="#3a414a" d="M30-248c87 1 191-15 191 75 0 78-77 80-158 76V0H30v-248zm33 125c57 0 124 11 124-50 0-59-68-47-124-48v98" id="U"/><path fill="#3a414a" d="M141 0L90-78 38 0H4l68-98-65-92h35l48 74 47-74h35l-64 92 68 98h-35" id="V"/><path fill="#3a414a" d="M179-190L93 31C79 59 56 82 12 73V49c39 6 53-20 64-50L1-190h34L92-34l54-156h33" id="W"/><g id="e"><use transform="matrix(0.05,0,0,0.05,0,0)" xlink:href="#U"/><use transform="matrix(0.05,0,0,0.05,12,0)" xlink:href="#S"/><use transform="matrix(0.05,0,0,0.05,17.95,0)" xlink:href="#P"/><use transform="matrix(0.05,0,0,0.05,27.950000000000003,0)" xlink:href="#V"/><use transform="matrix(0.05,0,0,0.05,36.95,0)" xlink:href="#W"/></g><path fill="#3a414a" d="M233-177c-1 41-23 64-60 70L243 0h-38l-65-103H63V0H30v-248c88 3 205-21 203 71zM63-129c60-2 137 13 137-47 0-61-80-42-137-45v92" id="X"/><path fill="#3a414a" d="M30 0v-248h187v28H63v79h144v27H63v87h162V0H30" id="Y"/><path fill="#3a414a" d="M127-220V0H93v-220H8v-28h204v28h-85" id="Z"/><g id="f"><use transform="matrix(0.05,0,0,0.05,0,0)" xlink:href="#X"/><use transform="matrix(0.05,0,0,0.05,12.950000000000001,0)" xlink:href="#Y"/><use transform="matrix(0.05,0,0,0.05,24.950000000000003,0)" xlink:href="#R"/><use transform="matrix(0.05,0,0,0.05,36.95,0)" xlink:href="#Z"/></g><path fill="#3a414a" d="M33 0v-248h34V0H33" id="aa"/><g id="g"><use transform="matrix(0.05,0,0,0.05,0,0)" xlink:href="#I"/><use transform="matrix(0.05,0,0,0.05,12,0)" xlink:href="#U"/><use transform="matrix(0.05,0,0,0.05,24,0)" xlink:href="#aa"/></g><path fill="#3a414a" d="M135-143c-3-34-86-38-87 0 15 53 115 12 119 90S17 21 10-45l28-5c4 36 97 45 98 0-10-56-113-15-118-90-4-57 82-63 122-42 12 7 21 19 24 35" id="ab"/><g id="h"><use transform="matrix(0.05,0,0,0.05,0,0)" xlink:href="#I"/><use transform="matrix(0.05,0,0,0.05,12,0)" xlink:href="#ab"/><use transform="matrix(0.05,0,0,0.05,21,0)" xlink:href="#ab"/><use transform="matrix(0.05,0,0,0.05,30,0)" xlink:href="#G"/><use transform="matrix(0.05,0,0,0.05,40,0)" xlink:href="#O"/><use transform="matrix(0.05,0,0,0.05,45,0)" xlink:href="#ab"/></g><g id="i"><use transform="matrix(0.05,0,0,0.05,0,0)" xlink:href="#R"/><use transform="matrix(0.05,0,0,0.05,12,0)" xlink:href="#G"/><use transform="matrix(0.05,0,0,0.05,22,0)" xlink:href="#S"/><use transform="matrix(0.05,0,0,0.05,27.950000000000003,0)" xlink:href="#T"/><use transform="matrix(0.05,0,0,0.05,36.95,0)" xlink:href="#L"/><use transform="matrix(0.05,0,0,0.05,40.900000000000006,0)" xlink:href="#M"/><use transform="matrix(0.05,0,0,0.05,49.900000000000006,0)" xlink:href="#G"/></g><path fill="#3a414a" d="M232-93c-1 65-40 97-104 97C67 4 28-28 28-90v-158h33c8 89-33 224 67 224 102 0 64-133 71-224h33v155" id="ac"/><g id="j"><use transform="matrix(0.05,0,0,0.05,0,0)" xlink:href="#ac"/><use transform="matrix(0.05,0,0,0.05,12.950000000000001,0)" xlink:href="#ab"/><use transform="matrix(0.05,0,0,0.05,21.950000000000003,0)" xlink:href="#G"/><use transform="matrix(0.05,0,0,0.05,31.950000000000003,0)" xlink:href="#S"/></g><path fill="#3a414a" d="M106-169C34-169 62-67 57 0H25v-261h32l-1 103c12-21 28-36 61-36 89 0 53 116 60 194h-32v-121c2-32-8-49-39-48" id="ad"/><g id="k"><use transform="matrix(0.05,0,0,0.05,0,0)" xlink:href="#R"/><use transform="matrix(0.05,0,0,0.05,12,0)" xlink:href="#G"/><use transform="matrix(0.05,0,0,0.05,22,0)" xlink:href="#N"/><use transform="matrix(0.05,0,0,0.05,32,0)" xlink:href="#S"/><use transform="matrix(0.05,0,0,0.05,37.95,0)" xlink:href="#M"/><use transform="matrix(0.05,0,0,0.05,46.95,0)" xlink:href="#ad"/></g><path fill="#3a414a" d="M140-251c81 0 123 46 123 126C263-53 228-8 163 1c7 30 30 48 69 40v23c-55 16-95-15-103-61C56-3 17-48 17-125c0-80 42-126 123-126zm0 227c63 0 89-41 89-101s-29-99-89-99c-61 0-89 39-89 99S79-25 140-24" id="ae"/><g id="l"><use transform="matrix(0.05,0,0,0.05,0,0)" xlink:href="#R"/><use transform="matrix(0.05,0,0,0.05,12,0)" xlink:href="#ae"/><use transform="matrix(0.05,0,0,0.05,26,0)" xlink:href="#R"/></g><path fill="#3a414a" d="M126-127c33 6 58 20 58 59 0 88-139 92-164 29-3-8-5-16-6-25l32-3c6 27 21 44 54 44 32 0 52-15 52-46 0-38-36-46-79-43v-28c39 1 72-4 72-42 0-27-17-43-46-43-28 0-47 15-49 41l-32-3c6-42 35-63 81-64 48-1 79 21 79 65 0 36-21 52-52 59" id="af"/><g id="m"><use transform="matrix(0.05,0,0,0.05,0,0)" xlink:href="#R"/><use transform="matrix(0.05,0,0,0.05,12,0)" xlink:href="#af"/></g><path fill="#3a414a" d="M85-194c31 0 48 13 60 33l-1-100h32l1 261h-30c-2-10 0-23-3-31C134-8 116 4 85 4 32 4 16-35 15-94c0-66 23-100 70-100zm9 24c-40 0-46 34-46 75 0 40 6 74 45 74 42 0 51-32 51-76 0-42-9-74-50-73" id="ag"/><g id="n"><use transform="matrix(0.05,0,0,0.05,0,0)" xlink:href="#R"/><use transform="matrix(0.05,0,0,0.05,12,0)" xlink:href="#O"/><use transform="matrix(0.05,0,0,0.05,17,0)" xlink:href="#N"/><use transform="matrix(0.05,0,0,0.05,27,0)" xlink:href="#Q"/><use transform="matrix(0.05,0,0,0.05,37,0)" xlink:href="#ag"/><use transform="matrix(0.05,0,0,0.05,47,0)" xlink:href="#N"/><use transform="matrix(0.05,0,0,0.05,57,0)" xlink:href="#S"/><use transform="matrix(0.05,0,0,0.05,62.95,0)" xlink:href="#ag"/></g><path fill="#3a414a" d="M177-190C167-65 218 103 67 71c-23-6-38-20-44-43l32-5c15 47 100 32 89-28v-30C133-14 115 1 83 1 29 1 15-40 15-95c0-56 16-97 71-98 29-1 48 16 59 35 1-10 0-23 2-32h30zM94-22c36 0 50-32 50-73 0-42-14-75-50-75-39 0-46 34-46 75s6 73 46 73" id="ah"/><path fill="#3a414a" d="M212-179c-10-28-35-45-73-45-59 0-87 40-87 99 0 60 29 101 89 101 43 0 62-24 78-52l27 14C228-24 195 4 139 4 59 4 22-46 18-125c-6-104 99-153 187-111 19 9 31 26 39 46" id="ai"/><g id="o"><use transform="matrix(0.05,0,0,0.05,0,0)" xlink:href="#ah"/><use transform="matrix(0.05,0,0,0.05,10,0)" xlink:href="#X"/><use transform="matrix(0.05,0,0,0.05,22.950000000000003,0)" xlink:href="#U"/><use transform="matrix(0.05,0,0,0.05,34.95,0)" xlink:href="#ai"/></g><g id="p"><use transform="matrix(0.05,0,0,0.05,0,0)" xlink:href="#U"/><use transform="matrix(0.05,0,0,0.05,12,0)" xlink:href="#ac"/><use transform="matrix(0.05,0,0,0.05,24.950000000000003,0)" xlink:href="#Z"/><use transform="matrix(0.05,0,0,0.05,35.900000000000006,0)" xlink:href="#R"/></g><path fill="#3a414a" d="M63-220v92h138v28H63V0H30v-248h175v28H63" id="aj"/><path fill="#3a414a" d="M30 0v-248h33v221h125V0H30" id="ak"/><g id="q"><use transform="matrix(0.05,0,0,0.05,0,0)" xlink:href="#aj"/><use transform="matrix(0.05,0,0,0.05,10.950000000000001,0)" xlink:href="#aa"/><use transform="matrix(0.05,0,0,0.05,15.950000000000001,0)" xlink:href="#ak"/><use transform="matrix(0.05,0,0,0.05,25.950000000000003,0)" xlink:href="#Y"/><use transform="matrix(0.05,0,0,0.05,37.95,0)" xlink:href="#R"/></g><path fill="#3a414a" d="M190 0L58-211 59 0H30v-248h39L202-35l-2-213h31V0h-41" id="al"/><path fill="#3a414a" d="M143 4C61 4 22-44 18-125c-5-107 100-154 193-111 17 8 29 25 37 43l-32 9c-13-25-37-40-76-40-61 0-88 39-88 99 0 61 29 100 91 101 35 0 62-11 79-27v-45h-74v-28h105v86C228-13 192 4 143 4" id="am"/><g id="r"><use transform="matrix(0.05,0,0,0.05,0,0)" xlink:href="#ac"/><use transform="matrix(0.05,0,0,0.05,12.950000000000001,0)" xlink:href="#R"/><use transform="matrix(0.05,0,0,0.05,24.950000000000003,0)" xlink:href="#aa"/><use transform="matrix(0.05,0,0,0.05,29.950000000000003,0)" xlink:href="#al"/><use transform="matrix(0.05,0,0,0.05,42.900000000000006,0)" xlink:href="#am"/></g><path fill="#3a414a" d="M30-248c118-7 216 8 213 122C240-48 200 0 122 0H30v-248zM63-27c89 8 146-16 146-99s-60-101-146-95v194" id="an"/><g id="s"><use transform="matrix(0.05,0,0,0.05,0,0)" xlink:href="#R"/><use transform="matrix(0.05,0,0,0.05,12,0)" xlink:href="#aa"/><use transform="matrix(0.05,0,0,0.05,17,0)" xlink:href="#am"/><use transform="matrix(0.05,0,0,0.05,31,0)" xlink:href="#al"/><use transform="matrix(0.05,0,0,0.05,43.95,0)" xlink:href="#Y"/><use transform="matrix(0.05,0,0,0.05,55.95,0)" xlink:href="#an"/></g><g id="t"><use transform="matrix(0.05,0,0,0.05,0,0)" xlink:href="#ac"/><use transform="matrix(0.05,0,0,0.05,12.950000000000001,0)" xlink:href="#X"/><use transform="matrix(0.05,0,0,0.05,25.900000000000002,0)" xlink:href="#ak"/><use transform="matrix(0.05,0,0,0.05,35.900000000000006,0)" xlink:href="#R"/></g><g id="u"><use transform="matrix(0.05,0,0,0.05,0,0)" xlink:href="#P"/><use transform="matrix(0.05,0,0,0.05,10,0)" xlink:href="#Q"/></g><path fill="#3a414a" d="M101-234c-31-9-42 10-38 44h38v23H63V0H32v-167H5v-23h27c-7-52 17-82 69-68v24" id="ao"/><g id="v"><use transform="matrix(0.05,0,0,0.05,0,0)" xlink:href="#ao"/><use transform="matrix(0.05,0,0,0.05,5,0)" xlink:href="#L"/><use transform="matrix(0.05,0,0,0.05,8.95,0)" xlink:href="#Q"/><use transform="matrix(0.05,0,0,0.05,18.95,0)" xlink:href="#L"/><use transform="matrix(0.05,0,0,0.05,22.9,0)" xlink:href="#ab"/><use transform="matrix(0.05,0,0,0.05,31.899999999999995,0)" xlink:href="#ad"/></g><path fill="#3a414a" d="M143 0L79-87 56-68V0H24v-261h32v163l83-92h37l-77 82L181 0h-38" id="ap"/><path fill="#3a414a" d="M206 0h-36l-40-164L89 0H53L-1-190h32L70-26l43-164h34l41 164 42-164h31" id="aq"/><g id="w"><use transform="matrix(0.05,0,0,0.05,0,0)" xlink:href="#N"/><use transform="matrix(0.05,0,0,0.05,10,0)" xlink:href="#M"/><use transform="matrix(0.05,0,0,0.05,19,0)" xlink:href="#ap"/><use transform="matrix(0.05,0,0,0.05,28,0)" xlink:href="#Q"/><use transform="matrix(0.05,0,0,0.05,38,0)" xlink:href="#P"/><use transform="matrix(0.05,0,0,0.05,48,0)" xlink:href="#aq"/><use transform="matrix(0.05,0,0,0.05,60.95,0)" xlink:href="#K"/><use transform="matrix(0.05,0,0,0.05,64.9,0)" xlink:href="#G"/><use transform="matrix(0.05,0,0,0.05,74.9,0)" xlink:href="#ag"/><use transform="matrix(0.05,0,0,0.05,84.9,0)" xlink:href="#ah"/><use transform="matrix(0.05,0,0,0.05,94.9,0)" xlink:href="#G"/><use transform="matrix(0.05,0,0,0.05,104.9,0)" xlink:href="#ab"/></g><g id="x"><use transform="matrix(0.05,0,0,0.05,0,0)" xlink:href="#O"/><use transform="matrix(0.05,0,0,0.05,5,0)" xlink:href="#ad"/><use transform="matrix(0.05,0,0,0.05,15,0)" xlink:href="#G"/></g><g id="y"><use transform="matrix(0.05,0,0,0.05,0,0)" xlink:href="#ao"/><use transform="matrix(0.05,0,0,0.05,5,0)" xlink:href="#L"/><use transform="matrix(0.05,0,0,0.05,8.95,0)" xlink:href="#K"/><use transform="matrix(0.05,0,0,0.05,12.899999999999999,0)" xlink:href="#G"/></g><g id="z"><use transform="matrix(0.05,0,0,0.05,0,0)" xlink:href="#an"/><use transform="matrix(0.05,0,0,0.05,12.950000000000001,0)" xlink:href="#N"/><use transform="matrix(0.05,0,0,0.05,22.950000000000003,0)" xlink:href="#O"/><use transform="matrix(0.05,0,0,0.05,27.950000000000003,0)" xlink:href="#N"/><use transform="matrix(0.05,0,0,0.05,37.95,0)" xlink:href="#H"/><use transform="matrix(0.05,0,0,0.05,47.95,0)" xlink:href="#N"/><use transform="matrix(0.05,0,0,0.05,57.95,0)" xlink:href="#ab"/><use transform="matrix(0.05,0,0,0.05,66.95,0)" xlink:href="#G"/></g><g id="A"><use transform="matrix(0.05,0,0,0.05,0,0)" xlink:href="#Y"/><use transform="matrix(0.05,0,0,0.05,12,0)" xlink:href="#K"/><use transform="matrix(0.05,0,0,0.05,15.949999999999998,0)" xlink:href="#N"/><use transform="matrix(0.05,0,0,0.05,25.950000000000003,0)" xlink:href="#ab"/><use transform="matrix(0.05,0,0,0.05,34.95,0)" xlink:href="#O"/><use transform="matrix(0.05,0,0,0.05,39.95,0)" xlink:href="#L"/><use transform="matrix(0.05,0,0,0.05,43.900000000000006,0)" xlink:href="#M"/><use transform="matrix(0.05,0,0,0.05,52.900000000000006,0)" xlink:href="#ab"/><use transform="matrix(0.05,0,0,0.05,61.900000000000006,0)" xlink:href="#G"/><use transform="matrix(0.05,0,0,0.05,71.9,0)" xlink:href="#N"/><use transform="matrix(0.05,0,0,0.05,81.9,0)" xlink:href="#S"/><use transform="matrix(0.05,0,0,0.05,87.85000000000001,0)" xlink:href="#M"/><use transform="matrix(0.05,0,0,0.05,96.85000000000001,0)" xlink:href="#ad"/></g><g id="B"><use transform="matrix(0.05,0,0,0.05,0,0)" xlink:href="#X"/><use transform="matrix(0.05,0,0,0.05,12.950000000000001,0)" xlink:href="#Y"/><use transform="matrix(0.05,0,0,0.05,24.950000000000003,0)" xlink:href="#an"/><use transform="matrix(0.05,0,0,0.05,37.900000000000006,0)" xlink:href="#aa"/><use transform="matrix(0.05,0,0,0.05,42.900000000000006,0)" xlink:href="#R"/></g></defs></g></svg>